<?xml version="1.0" encoding="UTF-8"?>
<svg id="Layer_1" data-name="Layer 1" xmlns="http://www.w3.org/2000/svg" xmlns:xlink="http://www.w3.org/1999/xlink" viewBox="0 0 419.09299 170.86301">
  <defs>
    <style>
      .cls-1 {
        font-size: 35.7453px;
      }

      .cls-1, .cls-2, .cls-3, .cls-4 {
        fill: #040607;
      }

      .cls-1, .cls-3, .cls-4 {
        font-family: Copperplate, Copperplate;
      }

      .cls-5 {
        clip-path: url(#clippath);
      }

      .cls-6, .cls-7, .cls-8, .cls-9, .cls-10, .cls-11, .cls-12, .cls-2, .cls-13, .cls-14 {
        stroke-width: 0px;
      }

      .cls-6, .cls-15 {
        fill: none;
      }

      .cls-7 {
        fill: #668a94;
      }

      .cls-8 {
        fill: #f1bf4a;
      }

      .cls-15 {
        stroke: #231f20;
        stroke-miterlimit: 10;
        stroke-width: 1.098px;
      }

      .cls-16 {
        clip-path: url(#clippath-1);
      }

      .cls-17 {
        clip-path: url(#clippath-4);
      }

      .cls-18 {
        clip-path: url(#clippath-3);
      }

      .cls-19 {
        clip-path: url(#clippath-2);
      }

      .cls-20 {
        clip-path: url(#clippath-7);
      }

      .cls-21 {
        clip-path: url(#clippath-8);
      }

      .cls-22 {
        clip-path: url(#clippath-6);
      }

      .cls-23 {
        clip-path: url(#clippath-5);
      }

      .cls-24 {
        clip-path: url(#clippath-9);
      }

      .cls-9 {
        fill: #3a5c5e;
      }

      .cls-10 {
        fill: #92c4c2;
      }

      .cls-25 {
        clip-path: url(#clippath-14);
      }

      .cls-26 {
        clip-path: url(#clippath-13);
      }

      .cls-27 {
        clip-path: url(#clippath-12);
      }

      .cls-28 {
        clip-path: url(#clippath-10);
      }

      .cls-29 {
        clip-path: url(#clippath-15);
      }

      .cls-30 {
        clip-path: url(#clippath-17);
      }

      .cls-31 {
        clip-path: url(#clippath-16);
      }

      .cls-32 {
        clip-path: url(#clippath-11);
      }

      .cls-33 {
        clip-path: url(#clippath-18);
      }

      .cls-11 {
        fill: #231f20;
      }

      .cls-12 {
        fill: #f06348;
      }

      .cls-34 {
        opacity: .52;
      }

      .cls-13 {
        fill: #ce5952;
      }

      .cls-14 {
        fill: #f48348;
      }

      .cls-3 {
        font-size: 28.71px;
      }

      .cls-4 {
        font-size: 16.2102px;
      }
    </style>
    <clipPath id="clippath">
      <rect class="cls-6" width="170.86301" height="170.86301"/>
    </clipPath>
    <clipPath id="clippath-1">
      <rect class="cls-6" width="170.86301" height="170.86301"/>
    </clipPath>
    <clipPath id="clippath-2">
      <path class="cls-6" d="M410.802,66.44801c0,31.778-25.76199,57.54-57.54102,57.54s-57.53998-25.762-57.53998-57.54c0-31.78001,25.76099-57.54099,57.53998-57.54099s57.54102,25.76099,57.54102,57.54099"/>
    </clipPath>
    <clipPath id="clippath-3">
      <path class="cls-6" d="M411.612,66.44801c0,32.225-26.125,58.35-58.35101,58.35s-58.34998-26.125-58.34998-58.35c0-32.227,26.12399-58.35101,58.34998-58.35101s58.35101,26.12401,58.35101,58.35101"/>
    </clipPath>
    <clipPath id="clippath-4">
      <polygon class="cls-6" points="291.89301 65.21201 419.09299 65.21201 403.39301 33.62001 396.66501 46.41201 389.53101 41.32901 382.64801 46.19501 377.04099 38.99501 373.116 42.29001 367.01599 35.75401 357.50699 54.66901 352.327 50.54401 345.81299 59.07101 340.42001 54.51701 337.28201 57.16301 332.746 51.645 330.22299 53.48 327.13901 47.75901 324.336 50.216 320.41101 37.32501 317.047 45.644 311.72 45.644 308.63699 49.66 304.702 41.886 302.75 46.41201 294.89899 34.30301 291.89301 65.21201"/>
    </clipPath>
    <clipPath id="clippath-5">
      <path class="cls-6" d="M411.444,66.25901c0,32.226-26.12399,58.351-58.35001,58.351s-58.35001-26.125-58.35001-58.351,26.125-58.35,58.35001-58.35,58.35001,26.125,58.35001,58.35"/>
    </clipPath>
    <clipPath id="clippath-6">
      <polygon class="cls-6" points="291.89301 64.98401 419.09299 64.98401 403.39301 96.577 396.66501 83.785 388.815 91.36501 382.64801 84.00001 377.04099 91.202 373.116 87.90501 367.01599 94.44101 357.64099 74.30301 352.327 79.65101 345.65302 70.29501 340.42001 75.67801 337.28201 73.034 332.746 78.55101 330.22299 76.716 327.13901 82.437 324.336 79.98 320.41101 92.87101 317.047 84.55201 311.72 84.55201 308.63699 80.536 304.702 88.30901 302.75 83.785 294.89899 95.89201 291.89301 64.98401"/>
    </clipPath>
    <clipPath id="clippath-7">
      <path class="cls-6" d="M411.444,63.937c0-32.227-26.12399-58.35099-58.35001-58.35099s-58.35001,26.12399-58.35001,58.35099,26.125,58.35,58.35001,58.35,58.35001-26.124,58.35001-58.35"/>
    </clipPath>
    <clipPath id="clippath-8">
      <path class="cls-6" d="M16.133,82.49501c0,34.901,28.294,63.194,63.195,63.194s63.194-28.293,63.194-63.194-28.292-63.196-63.194-63.196-63.195,28.295-63.195,63.196"/>
    </clipPath>
    <clipPath id="clippath-9">
      <path class="cls-6" d="M16.133,82.49501c0,34.901,28.294,63.194,63.195,63.194s63.194-28.293,63.194-63.194-28.292-63.196-63.194-63.196-63.195,28.295-63.195,63.196"/>
    </clipPath>
    <clipPath id="clippath-10">
      <rect class="cls-6" x="47.1408" y="79.18071" width="39.4819" height="39.4818"/>
    </clipPath>
    <clipPath id="clippath-11">
      <path class="cls-6" d="M83.991,69.55901l-5.689-4.531-7.155,9.365-5.922-5.001-3.447,2.904-4.981-6.059-2.771,2.015-3.387-6.283-3.078,2.699-4.312-14.158-3.694,9.13699h-5.85l-3.387,4.41-4.321-8.537-2.145,4.97-2.323-3.584c-3.296,7.433-5.2,15.62-5.381,24.231h126.35999c-.248-11.748-3.7-22.706-9.51999-32.038l-5.992,11.391-7.834-5.582-7.56001,5.343-6.158-7.907-4.311,3.62-6.69901-7.179-10.443,20.774Z"/>
    </clipPath>
    <clipPath id="clippath-12">
      <path class="cls-6" d="M83.991,69.55901l-5.689-4.531-7.155,9.365-5.922-5.001-3.447,2.904-4.981-6.059-2.771,2.015-3.387-6.283-3.078,2.699-4.312-14.158-3.694,9.13699h-5.85l-3.387,4.41-4.321-8.537-2.145,4.97-2.323-3.584c-3.297,7.434-5.199,15.62-5.381,24.231h126.35999c-.248-11.748-3.7-22.706-9.51999-32.038l-5.992,11.391-7.834-5.582-7.56001,5.343-6.158-7.907-4.311,3.62-6.69901-7.179-10.443,20.774Z"/>
    </clipPath>
    <clipPath id="clippath-13">
      <path class="cls-6" d="M16.133,82.49501c0,34.901,28.294,63.194,63.195,63.194s63.194-28.293,63.194-63.194-28.292-63.196-63.194-63.196-63.195,28.295-63.195,63.196"/>
    </clipPath>
    <clipPath id="clippath-14">
      <path class="cls-6" d="M16.153,80.88701c-.013.534-.02,1.071-.02,1.608,0,8.418,1.647,16.452,4.635,23.797l3.084-4.758,2.145,4.97,4.321-8.537,3.387,4.41h5.85l3.694,9.137,4.312-14.159,3.078,2.701,3.387-6.284,2.771,2.01501,4.981-6.06001,3.447,2.905,5.747-5.91199,7.33,10.275,5.835-5.873,10.297,22.117,6.69901-7.179,4.311,3.62,6.158-7.907,6.773,8.087,8.621-8.326,6.827,12.978c5.528-9.389,8.69901-20.333,8.69901-32.01699,0-.537-.007-1.07401-.02-1.608H16.153Z"/>
    </clipPath>
    <clipPath id="clippath-15">
      <path class="cls-6" d="M16.153,80.88701c-.012.534-.02,1.071-.02,1.608,0,8.131,1.536,15.90199,4.333,23.042.106.242.214.48199.323.722l3.063-4.72501,2.145,4.97,4.321-8.537,3.387,4.41h5.85l3.694,9.137,4.312-14.159,3.078,2.701,3.387-6.284,2.771,2.01501,4.981-6.06001,3.447,2.905,5.747-5.91199,7.33,10.275,5.835-5.873,10.297,22.117,6.69901-7.179,4.311,3.62,6.158-7.907,6.773,8.087,8.621-8.326,6.44699,12.255c3.125-4.973,5.58601-10.40499,7.25801-16.173,1.19-4.845,1.821-9.91,1.821-15.12099,0-.537-.007-1.07401-.02-1.608H16.153Z"/>
    </clipPath>
    <clipPath id="clippath-16">
      <path class="cls-6" d="M16.133,82.49501c0,34.901,28.294,63.194,63.195,63.194s63.194-28.293,63.194-63.194-28.292-63.196-63.194-63.196-63.195,28.295-63.195,63.196"/>
    </clipPath>
    <clipPath id="clippath-17">
      <rect class="cls-6" width="170.86301" height="170.86301"/>
    </clipPath>
    <clipPath id="clippath-18">
      <rect class="cls-6" width="170.86301" height="170.86301"/>
    </clipPath>
  </defs>
  <g class="cls-5">
    <g class="cls-16">
      <g class="cls-19">
        <g class="cls-18">
          <path class="cls-9" d="M277.82031,66.44771c0,32.22601-26.125,58.351-58.35101,58.351s-58.34999-26.125-58.34999-58.351,26.12399-58.351,58.34999-58.351,58.35101,26.12401,58.35101,58.351"/>
        </g>
        <g class="cls-17">
          <g class="cls-23">
            <path class="cls-9" d="M277.65341,66.25921c0,32.22601-26.12401,58.351-58.35001,58.351s-58.34999-26.125-58.34999-58.351S187.07741,7.90822,219.30341,7.90822s58.35001,26.125,58.35001,58.35099"/>
          </g>
        </g>
        <g class="cls-22">
          <g class="cls-20">
            <path class="cls-7" d="M277.65341,63.937c0-32.227-26.12401-58.35099-58.35001-58.35099s-58.34999,26.12399-58.34999,58.35099,26.12399,58.35,58.34999,58.35,58.35001-26.12399,58.35001-58.35"/>
          </g>
        </g>
      </g>
      <path class="cls-11" d="M145.62109,82.55611c0,36.875-29.89301,66.769-66.768,66.769S12.0851,119.43111,12.0851,82.55611,41.9781,15.78812,78.8531,15.78812s66.768,29.89299,66.768,66.76799"/>
    </g>
    <g class="cls-21">
      <path class="cls-10" d="M143.08211,82.49461c0,35.393-28.691,64.084-64.084,64.084S14.91411,117.88761,14.91411,82.49461,43.60511,18.41061,78.99811,18.41061s64.084,28.69099,64.084,64.08399"/>
      <path class="cls-7" d="M287.62411,82.49461c0,35.393-28.69101,64.084-64.084,64.084s-64.084-28.691-64.084-64.084,28.69099-64.08399,64.084-64.08399,64.084,28.69099,64.084,64.08399"/>
      <polygon class="cls-8" points="153.3804 76.0629 10.17641 76.0629 10.68941 51.33391 153.89339 51.33391 153.3804 76.0629"/>
      <rect class="cls-14" x="10.705" y="33.655" width="143.20399" height="24.48701"/>
      <polygon class="cls-12" points="154.46539 39.39111 11.2614 39.39111 10.68939 17.68112 153.89339 17.68112 154.46539 39.39111"/>
      <path class="cls-13" d="M86.6373,63.66251c0,10.903-8.83801,19.741-19.741,19.741s-19.74099-8.83801-19.74099-19.741c0-10.902,8.838-19.74,19.74099-19.74s19.741,8.838,19.741,19.74"/>
    </g>
    <g class="cls-24">
      <g class="cls-34">
        <g class="cls-28">
          <path class="cls-13" d="M86.6226,98.9213c0,10.903-8.83801,19.741-19.741,19.741s-19.74099-8.838-19.74099-19.741c0-10.902,8.838-19.74,19.74099-19.74s19.741,8.838,19.741,19.74"/>
        </g>
      </g>
      <polygon class="cls-9" points="11.9287 81.13721 151.6277 81.13721 134.3857 46.44121 126.9967 60.49021 119.1617 54.90821 111.60169 60.25121 105.4437 52.34421 101.1337 55.96321 94.43369 48.78521 83.99069 69.55921 78.3017 65.02921 71.1467 74.39321 65.2247 69.39221 61.7777 72.29621 56.7967 66.23721 54.0257 68.25221 50.6387 61.96921 47.5597 64.66821 43.2497 50.51021 39.5547 59.64721 33.7047 59.64721 30.3177 64.05721 25.9967 55.52021 23.8517 60.49021 15.2317 47.19221 11.9287 81.13721"/>
    </g>
    <g class="cls-32">
      <path class="cls-9" d="M143.2285,82.28751c0,35.393-28.691,64.084-64.084,64.084S15.0605,117.68051,15.0605,82.28751,43.7515,18.20351,79.1445,18.20351s64.084,28.691,64.084,64.084"/>
    </g>
    <g class="cls-27">
      <path class="cls-9" d="M142.8985,82.28751c0,35.393-28.691,64.084-64.084,64.084S14.73149,117.68051,14.73149,82.28751,43.4215,18.20351,78.8145,18.20351s64.084,28.691,64.084,64.084"/>
      <path class="cls-9" d="M287.44,82.28751c0,35.393-28.69101,64.084-64.084,64.084s-64.08301-28.691-64.08301-64.084,28.69-64.084,64.08301-64.084,64.084,28.691,64.084,64.084"/>
      <rect class="cls-9" x="10.50601" y="51.12701" width="143.20399" height="17.953"/>
    </g>
    <g class="cls-26">
      <polygon class="cls-7" points="11.9287 80.88721 151.6277 80.88721 134.3857 115.58321 126.9967 101.53421 118.37569 109.86021 111.60169 101.77321 105.4437 109.68021 101.1337 106.06021 94.43369 113.23921 84.1377 91.12221 78.3017 96.99521 70.97169 86.72021 65.2247 92.63221 61.7777 89.72721 56.7967 95.78621 54.0257 93.77221 50.6387 100.05521 47.5597 97.35621 43.2497 111.51421 39.5547 102.37721 33.7047 102.37721 30.3177 97.96721 25.9967 106.50421 23.8517 101.53421 15.2317 114.83221 11.9287 80.88721"/>
    </g>
    <g class="cls-25">
      <path class="cls-7" d="M143.2285,79.73681c0-35.393-28.691-64.08399-64.084-64.08399S15.0605,44.34381,15.0605,79.73681s28.691,64.084,64.084,64.084,64.084-28.691,64.084-64.084"/>
    </g>
    <g class="cls-29">
      <path class="cls-7" d="M287.44,79.73681c0-35.393-28.69101-64.08399-64.084-64.08399s-64.08301,28.69099-64.08301,64.08399,28.69,64.084,64.08301,64.084,64.084-28.691,64.084-64.084"/>
      <rect class="cls-7" x="10.50601" y="128.62401" width="143.20399" height="15.926"/>
      <rect class="cls-7" x="10.50601" y="110.672" width="143.20399" height="17.952"/>
    </g>
    <g class="cls-31">
      <path class="cls-9" d="M142.7354,49.26611c3.534,0,3.53999-5.491,0-5.491-3.533,0-3.539,5.491,0,5.491"/>
      <path class="cls-9" d="M142.7354,49.26611c3.534,0,3.53999-5.491,0-5.491-3.533,0-3.539,5.491,0,5.491"/>
    </g>
    <g class="cls-30">
      <rect class="cls-2" x="32.533" y="75.85701" width="8.154" height="2.229"/>
      <path class="cls-2" d="M121.5264,51.38721c.117-.74-.702-1.659-.866-1.59399-3.721,1.48199-28.592,11.389-29.938,11.917l-.065-.231,6.258-2.599c.37199-.154.549-.574.403-.949-.301-.77-.78101-1.786-1.118-2.40501-.18-.32999-.58-.465-.926-.31899-2.46799,1.044-12.363,5.228-12.76299,5.368-.466.165-.841.502-1.376-.182l-1.409.33c-.192.044-.415.478-.524.643-.709,1.076-1.752,1.232-2.825,1.658-.203.08-.384-.09-.46-.166-.162-.165-.394-.238-.589-.112l-2.55299,1.653c-.51.194-.54-.669-.888-.539-.47701.172-.802.52901-.794,1.023l.31499,1.834c-.015.494.456.872.932.738,1.265-.356,2.33801-1.13,3.429-1.864.21.75.214.757-.428,1.123-.597.341-1.259.603-.834,1.532.228.497-.311.641-.588.82-.987.633-1.854,1.404-2.69,2.217,0,.003.001.007.001.011l-.019.008.018-.019-2.55099,1.121-.007.003-1.078.42599c-.123.049-.26.05801-.39101.033-1.85799-.337-4.16299.439-5.841,1.037-5.12,1.823-9.456,3.88499-14.267,6.5-.26.141-.478.24599-.651.369h18.005c.173,0,.34-.061.473-.172.273-.23.547-.46.827-.683l4.535-3.25101c.58701-.42,1.108-.921,1.598-1.451.03-.032.06001-.064.091-.096,1.14-1.161,1.694-1.224,3.058-.382,1.621,1.001,3.551.028,3.645-1.83601.01501-.28799-.10799-.679.25301-.796,1.63599-.528,20.003-8.43,25.24-10.793.737-.333.558-1.39.596-2.332.021-.502.618-1.053.959-1.191,6.477-2.615,15.803-6.402,15.803-6.402"/>
      <line class="cls-15" x1="14.5742" y1="80.92431" x2="143.66919" y2="80.92431"/>
    </g>
    <text class="cls-3" transform="translate(21.56641 94.57297)"><tspan x="0" y="0" xml:space="preserve">  ackson</tspan></text>
    <text class="cls-4" transform="translate(64.10937 103.9548)"><tspan x="0" y="0">Firearms</tspan></text>
    <text class="cls-1" transform="translate(19.48877 81.40012)"><tspan x="0" y="0">W</tspan></text>
    <text class="cls-1" transform="translate(23.88525 94.91183)"><tspan x="0" y="0">J</tspan></text>
    <g class="cls-33">
      <path class="cls-9" d="M121.6231,63.61961c3.534,0,3.53999-5.491,0-5.491-3.533,0-3.539,5.491,0,5.491"/>
      <path class="cls-9" d="M121.6231,63.61961c3.534,0,3.53999-5.491,0-5.491-3.533,0-3.539,5.491,0,5.491"/>
    </g>
  </g>
</svg>